<?xml version="1.0" encoding="utf-8"?>
<!-- Generator: $$$/GeneralStr/196=Adobe Illustrator 27.6.0, SVG Export Plug-In . SVG Version: 6.00 Build 0)  -->
<svg version="1.1" id="Calque_1" xmlns="http://www.w3.org/2000/svg" xmlns:xlink="http://www.w3.org/1999/xlink" x="0px" y="0px"
	 viewBox="0 0 326 43" style="enable-background:new 0 0 326 43;" xml:space="preserve">
<g>
	<path d="M0,0.8h27.4v4.1H4.6v14h19.9v4H4.6v14.5h22.8v4.1H0V0.8z"/>
	<path d="M31.3,27.3L31.2,9.9h4.4l-1.1,15.6h0.6C35.8,14.4,39.7,9,46.9,9c7.3,0,10.6,5.2,10.6,16.3v16.3H53V25.3c0-8.4-2-12-7.2-12
		c-6.5,0-9.9,6.5-9.9,20v8.3h-4.6V27.3z"/>
	<path d="M62.8,21.5C62.8,8.2,70,0,80.7,0c9,0,14.6,5.6,14.8,14.1l-4.3,0.7C90.9,8.1,86.9,4.2,80.7,4.2c-7.2,0-13.1,5.4-13.1,17
		c0,10.9,5.3,17.1,13.6,17.1c7.3,0,11.5-4.9,11.4-13.7l4.4,0.7c0.3,9.8-5.3,17.1-16,17.1C69.5,42.4,62.8,34.1,62.8,21.5z"/>
	<path d="M101,25.7c0-11,6.6-16.7,14.9-16.7c8.5,0,15.1,5.8,15.1,16.9c0,11.1-6.5,16.5-14.8,16.5C107.6,42.4,101,36.9,101,25.7z
		 M126.3,26.1c0-7.9-4-13-10.5-13c-6.3,0-10.3,4.9-10.3,12.6c0,7.9,4,12.7,10.6,12.7C122.4,38.4,126.3,34,126.3,26.1z"/>
	<path d="M136.2,28.3l-0.1-18.4h4.5l-1.2,15.6h0.6C140.8,14.2,144.3,9,150.7,9c6.6,0,9.2,5.3,8.4,16.5h0.6
		c0.7-11.1,4.1-16.5,11-16.5c6.6,0,10,4.9,10,15.1v17.5h-4.6V25c0-8.1-1.8-11.6-6.1-11.6c-6.1,0-9.2,7.2-9.2,18.4v9.8h-4.5V24.6
		c0-7.5-1.9-11.2-6.1-11.2c-5.8,0-9.2,6.9-9.2,18.4v9.8h-4.6V28.3z"/>
	<path d="M186.3,28.3l-0.1-18.4h4.5l-1.2,15.6h0.6C190.9,14.2,194.3,9,200.8,9c6.6,0,9.2,5.3,8.4,16.5h0.6
		c0.7-11.1,4.1-16.5,11-16.5c6.6,0,10,4.9,10,15.1v17.5H226V25c0-8.1-1.8-11.6-6.1-11.6c-6.1,0-9.2,7.2-9.2,18.4v9.8h-4.5V24.6
		c0-7.5-1.9-11.2-6.1-11.2c-5.8,0-9.2,6.9-9.2,18.4v9.8h-4.6V28.3z"/>
	<path d="M235.9,25.3V9.9h4.6v15.3c0,9.2,2,12.9,7.3,12.9c6.4,0,9.7-5.6,9.7-18.6V9.9h4.5v15l0.1,16.8h-4.4l1.1-13.9h-0.6
		c-1.3,10.2-4.7,14.7-11.5,14.7C239.2,42.4,235.9,37.1,235.9,25.3z"/>
	<path d="M268.1,27.3l-0.1-17.4h4.4l-1.1,15.6h0.6C272.6,14.4,276.5,9,283.7,9c7.3,0,10.6,5.2,10.6,16.3v16.3h-4.6V25.3
		c0-8.4-2-12-7.2-12c-6.5,0-9.9,6.5-9.9,20v8.3h-4.6V27.3z"/>
	<path d="M299,30.3l4.3-0.4c-0.5,6.6,3.5,8.7,9.1,8.7c5.4,0,8.4-2,8.4-5.1c0-4-4.1-4.8-9.2-5.8c-6.2-1.2-12.4-2.4-12.4-9.2
		c0-5.6,4.8-9.5,12.1-9.5c6.9,0,12.8,3.4,12.4,11.3l-4.2,0.7c0.3-5.6-3.4-8-8.5-8c-4.5,0-7.4,2-7.4,5.2c0,4.1,4.2,4.8,9.2,5.7
		c5.8,1,12.4,2.2,12.4,9.5c0,5.6-5.1,9.1-13.1,9.1S298.4,39.2,299,30.3z"/>
</g>
</svg>
