<svg width="326" height="40" viewBox="0 0 326 40" fill="none" xmlns="http://www.w3.org/2000/svg">
<path d="M0 0.68H28.98V8.52H8.91V15.06H21.14V22.9H8.91V30.51H28.98V38.35H0V0.68Z" fill="black"/>
<path d="M40.54 10.37L41.61 14.09C42.85 12 45.95 9.58 50.24 9.58C57.46 9.58 59.66 13.75 59.66 21.31V38.34H51.09V23.46C51.09 19.51 50.92 16.24 46.81 16.24C43.2 16.24 41.62 18.89 41.62 23.96V38.34H33.05V10.37H40.55H40.54Z" fill="black"/>
<path d="M64.45 19.51C64.45 7.61 71.84 0 83.51 0C90.61 0 96.08 3.44 98.96 8.74L91.07 11.62C89.38 8.58 86.28 7.33 83.23 7.33C77.99 7.33 73.87 11.84 73.87 19.51C73.87 27.18 77.99 31.69 83.34 31.69C86.16 31.69 89.6 30.73 91.35 27.46L99.19 30.34C96.15 35.7 90.4 39.02 83.29 39.02C71.56 39.02 64.46 31.52 64.46 19.51H64.45Z" fill="black"/>
<path d="M116.1 9.58C123.77 9.58 130.87 14.15 130.87 24.24C130.87 34.33 123.77 39.01 116.1 39.01C108.43 39.01 101.27 34.33 101.27 24.24C101.27 14.15 108.32 9.58 116.1 9.58ZM110.01 24.24C110.01 30.1 112.6 32.36 116.1 32.36C119.6 32.36 122.13 30.11 122.13 24.24C122.13 18.37 119.42 16.23 116.1 16.23C112.78 16.23 110.01 18.32 110.01 24.24Z" fill="black"/>
<path d="M135.04 38.34V10.37H142.54L143.61 14.09C144.85 12 147.9 9.58 152.07 9.58C156.52 9.58 159.06 11.22 160.36 14.26C162.5 11.16 166 9.58 169.94 9.58C177.1 9.58 179.36 13.75 179.36 21.31V38.34H170.79V23.46C170.79 19.51 170.56 16.24 166.45 16.24C162.95 16.24 161.49 18.66 161.49 23.57V38.34H152.86V23.46C152.86 19.51 152.69 16.24 148.69 16.24C145.14 16.24 143.62 18.89 143.62 23.74V38.34H135.04Z" fill="black"/>
<path d="M185 38.34V10.37H192.5L193.57 14.09C194.81 12 197.85 9.58 202.03 9.58C206.48 9.58 209.02 11.22 210.32 14.26C212.46 11.16 215.96 9.58 219.9 9.58C227.06 9.58 229.32 13.75 229.32 21.31V38.34H220.75V23.46C220.75 19.51 220.52 16.24 216.41 16.24C212.91 16.24 211.45 18.66 211.45 23.57V38.34H202.82V23.46C202.82 19.51 202.65 16.24 198.65 16.24C195.1 16.24 193.58 18.89 193.58 23.74V38.34H185Z" fill="black"/>
<path d="M243.53 10.37V25.03C243.53 29.03 243.64 32.36 247.82 32.36C251.43 32.36 252.78 30.27 252.78 25.09V10.38H261.41V38.34H253.97L252.79 34.39C251.15 37.15 248.96 39.01 244.67 39.01C237.23 39.01 234.97 34.78 234.97 27.17V10.37H243.54H243.53Z" fill="black"/>
<path d="M274.6 10.37L275.67 14.09C276.91 12 280.01 9.58 284.3 9.58C291.52 9.58 293.72 13.75 293.72 21.31V38.34H285.15V23.46C285.15 19.51 284.98 16.24 280.87 16.24C277.26 16.24 275.68 18.89 275.68 23.96V38.34H267.11V10.37H274.61H274.6Z" fill="black"/>
<path d="M297.72 31.91L304.99 29.26C305.84 31.63 308.37 32.76 311.59 32.76C314.35 32.76 316.89 31.91 316.89 30.17C316.89 28.99 315.76 28.2 312.55 27.63L307.53 26.78C302.12 25.88 298.4 23.12 298.4 18.44C298.4 12.58 304.32 9.59 311.26 9.59C316.62 9.59 321.58 11.39 323.66 15.79L316.44 18.44C315.88 16.41 313.73 15.85 311.2 15.85C308.16 15.85 306.58 16.64 306.58 18.1C306.58 19.23 307.54 19.9 310.02 20.36L315.21 21.32C321.98 22.56 325.13 24.53 325.13 29.21C325.13 35.81 318.93 39.02 311.43 39.02C304.89 39.02 299.87 36.6 297.73 31.92L297.72 31.91Z" fill="black"/>
</svg>
